<svg width="68" height="60" viewBox="0 0 68 60" fill="none" xmlns="http://www.w3.org/2000/svg">
<path d="M53.3421 34.0792C53.3421 44.8816 44.647 53.6387 33.9211 53.6387C23.1951 53.6387 14.5 44.8816 14.5 34.0792C14.5 23.2768 23.1951 14.5198 33.9211 14.5198C44.647 14.5198 53.3421 23.2768 53.3421 34.0792Z" fill="url(#paint0_linear)"/>
<g filter="url(#filter0_f)">
<path fill-rule="evenodd" clip-rule="evenodd" d="M34 59.825C48.2635 59.825 59.8255 48.2622 59.8255 34C59.8255 19.7378 48.2635 8.17503 34 8.17503C19.7365 8.17503 8.1745 19.7378 8.1745 34C8.1745 48.2622 19.7365 59.825 34 59.825ZM34 60C48.3594 60 60 48.3594 60 34C60 19.6406 48.3594 8 34 8C19.6406 8 8 19.6406 8 34C8 48.3594 19.6406 60 34 60Z" fill="#FFD787"/>
</g>
<defs>
<filter id="filter0_f" x="0.550921" y="0.550921" width="66.8982" height="66.8982" filterUnits="userSpaceOnUse" color-interpolation-filters="sRGB">
<feFlood flood-opacity="0" result="BackgroundImageFix"/>
<feBlend mode="normal" in="SourceGraphic" in2="BackgroundImageFix" result="shape"/>
<feGaussianBlur stdDeviation="3.72454" result="effect1_foregroundBlur"/>
</filter>
<linearGradient id="paint0_linear" x1="41.7444" y1="16.3306" x2="25.1868" y2="53.5475" gradientUnits="userSpaceOnUse">
<stop stop-color="white"/>
<stop offset="1" stop-color="#747474"/>
</linearGradient>
</defs>
</svg>
