<svg width="52" height="52" viewBox="0 0 52 52" fill="none" xmlns="http://www.w3.org/2000/svg">
<path d="M45.3984 27.5141C45.3984 31.1091 42.4788 34.0234 38.8759 34.0234H15.274C10.4847 34.0234 6.60156 30.1487 6.60156 25.3672C6.60156 20.587 10.4847 16.7109 15.274 16.7109C15.7035 16.7109 16.1257 16.7438 16.5397 16.8037C18.4982 12.9217 22.526 10.2578 27.1789 10.2578C32.809 10.2578 37.5255 14.1595 38.7646 19.4013C38.8883 19.9247 38.9776 20.4608 39.0288 21.0071V21.0084C42.5594 21.0889 45.3984 23.9703 45.3984 27.5141V27.5141Z" fill="url(#paint0_linear)" fill-opacity="0.9"/>
<path d="M35.0392 33.4028C35.0392 36.0453 32.8991 38.1875 30.2583 38.1875H12.9585C9.44795 38.1875 6.60168 35.3394 6.60168 31.8248C6.60168 28.3111 9.44795 25.4621 12.9585 25.4621C13.2733 25.4621 13.5828 25.4862 13.8862 25.5303C15.3217 22.6768 18.2741 20.7188 21.6846 20.7188C25.8113 20.7188 29.2684 23.5866 30.1767 27.4396C30.2673 27.8243 30.3328 28.2184 30.3704 28.6199V28.6209C32.9582 28.68 35.0392 30.798 35.0392 33.4028V33.4028Z" fill="url(#paint1_linear)" fill-opacity="0.9"/>
<path d="M35.0392 33.4028C35.0392 36.0453 32.8991 38.1875 30.2583 38.1875H12.9585C9.44795 38.1875 6.60168 35.3394 6.60168 31.8248C6.60168 28.3111 9.44795 25.4621 12.9585 25.4621C13.2733 25.4621 13.5828 25.4862 13.8862 25.5303C15.3217 22.6768 18.2741 20.7188 21.6846 20.7188C25.8113 20.7188 29.2684 23.5866 30.1767 27.4396C30.2673 27.8243 30.3328 28.2184 30.3704 28.6199V28.6209C32.9582 28.68 35.0392 30.798 35.0392 33.4028V33.4028Z" fill="url(#paint2_linear)" fill-opacity="0.8"/>
<defs>
<linearGradient id="paint0_linear" x1="12.7461" y1="14.4219" x2="47.1199" y2="35.6672" gradientUnits="userSpaceOnUse">
<stop stop-color="white" stop-opacity="0.7"/>
<stop offset="1" stop-color="white" stop-opacity="0"/>
</linearGradient>
<linearGradient id="paint1_linear" x1="11.1055" y1="23.7795" x2="31.3178" y2="38.1339" gradientUnits="userSpaceOnUse">
<stop stop-color="#ABABAB"/>
<stop offset="1" stop-color="white" stop-opacity="0.88"/>
</linearGradient>
<linearGradient id="paint2_linear" x1="11.1055" y1="23.7795" x2="39.0494" y2="42.426" gradientUnits="userSpaceOnUse">
<stop stop-color="white" stop-opacity="0.7"/>
<stop offset="1" stop-color="white" stop-opacity="0.69"/>
</linearGradient>
</defs>
</svg>
