<svg width="520" height="520" viewBox="0 0 520 520" fill="none" xmlns="http://www.w3.org/2000/svg">
<path d="M453.985 208.203C453.985 257.003 414.426 296.563 365.626 296.563C316.827 296.563 277.267 257.003 277.267 208.203C277.267 159.404 316.827 119.844 365.626 119.844C414.426 119.844 453.985 159.404 453.985 208.203Z" fill="url(#paint0_linear)"/>
<path d="M453.983 335.063C453.983 371.012 424.786 400.156 388.758 400.156H152.739C104.846 400.156 66.0144 361.409 66.0144 313.594C66.0144 265.792 104.846 227.031 152.739 227.031C157.034 227.031 161.256 227.36 165.396 227.959C184.981 189.139 225.259 162.5 271.788 162.5C328.088 162.5 375.254 201.517 387.645 253.935C388.881 259.169 389.774 264.53 390.287 269.992V270.006C425.592 270.811 453.983 299.625 453.983 335.063V335.063Z" fill="url(#paint1_linear)" fill-opacity="0.8"/>
<path d="M453.983 335.063C453.983 371.012 424.786 400.156 388.758 400.156H152.739C104.846 400.156 66.0144 361.409 66.0144 313.594C66.0144 265.792 104.846 227.031 152.739 227.031C157.034 227.031 161.256 227.36 165.396 227.959C184.981 189.139 225.259 162.5 271.788 162.5C328.088 162.5 375.254 201.517 387.645 253.935C388.881 259.169 389.774 264.53 390.287 269.992V270.006C425.592 270.811 453.983 299.625 453.983 335.063V335.063Z" fill="url(#paint2_linear)" fill-opacity="0.8"/>
<path d="M453.983 335.063C453.983 371.012 424.786 400.156 388.758 400.156H152.739C104.846 400.156 66.0144 361.409 66.0144 313.594C66.0144 265.792 104.846 227.031 152.739 227.031C157.034 227.031 161.256 227.36 165.396 227.959C184.981 189.139 225.259 162.5 271.788 162.5C328.088 162.5 375.254 201.517 387.645 253.935C388.881 259.169 389.774 264.53 390.287 269.992V270.006C425.592 270.811 453.983 299.625 453.983 335.063V335.063Z" fill="url(#paint3_linear)"/>
<defs>
<linearGradient id="paint0_linear" x1="401.22" y1="128.024" x2="326.777" y2="296.543" gradientUnits="userSpaceOnUse">
<stop stop-color="#FFD88B"/>
<stop offset="1" stop-color="#FFA900"/>
</linearGradient>
<linearGradient id="paint1_linear" x1="127.46" y1="204.141" x2="516.686" y2="389.394" gradientUnits="userSpaceOnUse">
<stop stop-color="white" stop-opacity="0.7"/>
<stop offset="1" stop-color="white" stop-opacity="0"/>
</linearGradient>
<linearGradient id="paint2_linear" x1="127.46" y1="204.141" x2="516.686" y2="389.394" gradientUnits="userSpaceOnUse">
<stop stop-color="white" stop-opacity="0.7"/>
<stop offset="1" stop-color="white" stop-opacity="0"/>
</linearGradient>
<linearGradient id="paint3_linear" x1="127.46" y1="204.141" x2="516.686" y2="389.394" gradientUnits="userSpaceOnUse">
<stop stop-color="white" stop-opacity="0.7"/>
<stop offset="1" stop-color="white"/>
</linearGradient>
</defs>
</svg>
