<svg width="52" height="52" viewBox="0 0 52 52" fill="none" xmlns="http://www.w3.org/2000/svg">
<path d="M23.2754 30.793C23.2988 29.3984 23.457 28.2969 23.75 27.4883C24.043 26.6797 24.6406 25.7832 25.543 24.7988L27.8457 22.4258C28.8301 21.3125 29.3223 20.1172 29.3223 18.8398C29.3223 17.6094 29 16.6484 28.3555 15.957C27.7109 15.2539 26.7734 14.9023 25.543 14.9023C24.3477 14.9023 23.3867 15.2188 22.6602 15.8516C21.9336 16.4844 21.5703 17.334 21.5703 18.4004H18.3184C18.3418 16.502 19.0156 14.9727 20.3398 13.8125C21.6758 12.6406 23.4102 12.0547 25.543 12.0547C27.7578 12.0547 29.4805 12.6523 30.7109 13.8477C31.9531 15.0312 32.5742 16.6602 32.5742 18.7344C32.5742 20.7852 31.625 22.8066 29.7266 24.7988L27.8105 26.6973C26.9551 27.6465 26.5273 29.0117 26.5273 30.793H23.2754ZM23.1348 36.3652C23.1348 35.8379 23.293 35.3984 23.6094 35.0469C23.9375 34.6836 24.418 34.502 25.0508 34.502C25.6836 34.502 26.1641 34.6836 26.4922 35.0469C26.8203 35.3984 26.9844 35.8379 26.9844 36.3652C26.9844 36.8926 26.8203 37.332 26.4922 37.6836C26.1641 38.0234 25.6836 38.1934 25.0508 38.1934C24.418 38.1934 23.9375 38.0234 23.6094 37.6836C23.293 37.332 23.1348 36.8926 23.1348 36.3652Z" fill="url(#paint0_linear)" fill-opacity="0.8"/>
<defs>
<linearGradient id="paint0_linear" x1="34.0769" y1="5" x2="3.03269" y2="19.743" gradientUnits="userSpaceOnUse">
<stop stop-color="white"/>
<stop offset="1" stop-color="#747474"/>
</linearGradient>
</defs>
</svg>
