<svg width="21" height="21" viewBox="0 0 21 21" fill="none" xmlns="http://www.w3.org/2000/svg">
<path d="M15.7976 3.91659V1.61438H16.8852C17.1571 1.61438 17.3774 1.39413 17.3774 1.12219C17.3774 0.850259 17.1571 0.630005 16.8852 0.630005H3.78332C3.51139 0.630005 3.29114 0.850259 3.29114 1.12219C3.29114 1.39413 3.51139 1.61438 3.78332 1.61438H4.87106V3.91659C4.87813 5.32856 5.45384 6.67808 6.46774 7.66061L9.61574 10.7042L6.60648 13.5361C5.56073 14.5236 4.96842 15.8986 4.96949 17.337V19.3332H3.78332C3.51139 19.3332 3.29114 19.5534 3.29114 19.8253C3.29114 20.0973 3.51139 20.3175 3.78332 20.3175H16.8852C17.1571 20.3175 17.3774 20.0973 17.3774 19.8253C17.3774 19.5534 17.1571 19.3332 16.8852 19.3332H15.8468V17.3736C15.8442 15.91 15.2279 14.5145 14.1482 13.5266L11.054 10.6996L14.2015 7.66061C15.2153 6.67792 15.7907 5.32856 15.7976 3.91659ZM14.8625 17.3736V19.3332H5.95387V17.337C5.95325 16.1701 6.43421 15.0548 7.28277 14.2538L10.3419 11.3805L13.4857 14.2529C14.3612 15.0545 14.8608 16.1865 14.8625 17.3736ZM10.3343 10.0246L7.15265 6.9537C6.32962 6.15666 5.86205 5.06201 5.85543 3.91659V1.61438H14.8132V3.91659C14.8065 5.06201 14.3389 6.15666 13.5159 6.9537L10.3343 10.0246Z" fill="white"/>
</svg>
