<svg width="11" height="21" viewBox="0 0 11 21" fill="none" xmlns="http://www.w3.org/2000/svg">
<path d="M9.1221 8.06371L6.59991 5.62747V17.9375C6.59991 18.5248 6.10791 19 5.4999 19C4.89188 19 4.39988 18.5248 4.39988 17.9375V5.62747L1.87769 8.06371C1.44798 8.47878 0.751897 8.47878 0.322286 8.06371C-0.107429 7.64864 -0.107429 6.97627 0.322286 6.5613L4.7209 2.31257C4.82269 2.21396 4.94458 2.13577 5.07998 2.08168C5.21435 2.02799 5.35687 2 5.5 2C5.64314 2 5.78565 2.02799 5.92002 2.08168C6.05542 2.13577 6.17731 2.21396 6.2791 2.31257L10.6777 6.5613C11.1074 6.97637 11.1074 7.64874 10.6777 8.06371C10.2479 8.47878 9.55182 8.47878 9.1221 8.06371Z" fill="white"/>
</svg>
