<svg width="11" height="21" viewBox="0 0 11 21" fill="none" xmlns="http://www.w3.org/2000/svg">
<path d="M9.1221 12.9363L6.59991 15.3725V3.06253C6.59991 2.47523 6.10791 2 5.4999 2C4.89188 2 4.39988 2.47523 4.39988 3.06253V15.3725L1.87769 12.9363C1.44798 12.5212 0.751897 12.5212 0.322286 12.9363C-0.107429 13.3514 -0.107429 14.0237 0.322286 14.4387L4.7209 18.6874C4.82269 18.786 4.94458 18.8642 5.07998 18.9183C5.21435 18.972 5.35687 19 5.5 19C5.64314 19 5.78565 18.972 5.92002 18.9183C6.05542 18.8642 6.17731 18.786 6.2791 18.6874L10.6777 14.4387C11.1074 14.0236 11.1074 13.3513 10.6777 12.9363C10.2479 12.5212 9.55182 12.5212 9.1221 12.9363Z" fill="white"/>
</svg>
