<svg width="21" height="21" viewBox="0 0 21 21" fill="none" xmlns="http://www.w3.org/2000/svg">
<path fill-rule="evenodd" clip-rule="evenodd" d="M4.72088 11.5722C4.99854 11.4641 5.28165 11.4023 5.57812 11.4023C6.15627 11.4023 6.68356 11.6372 7.21875 11.9923C7.75394 11.6372 8.28123 11.4023 8.85938 11.4023C9.43752 11.4023 9.96481 11.6372 10.5 11.9923C11.0352 11.6372 11.5625 11.4023 12.1406 11.4023C12.7188 11.4023 13.2461 11.6372 13.7813 11.9923C14.3164 11.6372 14.8437 11.4023 15.4219 11.4023C15.7184 11.4023 16.0015 11.4641 16.2791 11.5722C15.7152 8.89797 13.342 6.89063 10.5 6.89063C7.65797 6.89063 5.28478 8.89797 4.72088 11.5722ZM9.84375 13.1332C9.3693 12.8086 9.0857 12.7148 8.85938 12.7148C8.59411 12.7148 8.25018 12.8436 7.6125 13.3219L7.21875 13.6172L6.825 13.3219C6.18732 12.8436 5.84339 12.7148 5.57812 12.7148C5.31286 12.7148 4.96893 12.8436 4.33125 13.3219L3.28125 14.1094V12.7969C3.28125 8.81007 6.51319 5.57812 10.5 5.57812C14.4868 5.57812 17.7188 8.81007 17.7188 12.7969V14.1094L16.6687 13.3219C16.0311 12.8436 15.6871 12.7148 15.4219 12.7148C15.1566 12.7148 14.8127 12.8436 14.175 13.3219L13.7812 13.6172L13.3875 13.3219C12.7498 12.8436 12.4059 12.7148 12.1406 12.7148C11.9143 12.7148 11.6307 12.8086 11.1562 13.1332V17.3906C11.1562 17.9343 11.597 18.375 12.1406 18.375C12.6843 18.375 13.125 17.9343 13.125 17.3906C13.125 17.0282 13.4188 16.7344 13.7812 16.7344C14.1437 16.7344 14.4375 17.0282 14.4375 17.3906C14.4375 18.6592 13.4092 19.6875 12.1406 19.6875C10.8721 19.6875 9.84375 18.6592 9.84375 17.3906V13.1332Z" fill="white"/>
<path fill-rule="evenodd" clip-rule="evenodd" d="M10.5 1.3125C10.8624 1.3125 11.1562 1.60631 11.1562 1.96875V3.60938C11.1562 3.97181 10.8624 4.26562 10.5 4.26562C10.1376 4.26562 9.84375 3.97181 9.84375 3.60938V1.96875C9.84375 1.60631 10.1376 1.3125 10.5 1.3125ZM5.25 2.625C5.61244 2.625 5.90625 2.91881 5.90625 3.28125V4.92188C5.90625 5.28431 5.61244 5.57812 5.25 5.57812C4.88756 5.57812 4.59375 5.28431 4.59375 4.92188V3.28125C4.59375 2.91881 4.88756 2.625 5.25 2.625ZM15.75 2.625C16.1124 2.625 16.4062 2.91881 16.4062 3.28125V4.92188C16.4062 5.28431 16.1124 5.57812 15.75 5.57812C15.3876 5.57812 15.0938 5.28431 15.0938 4.92188V3.28125C15.0938 2.91881 15.3876 2.625 15.75 2.625Z" fill="white"/>
</svg>
