<svg width="21" height="21" viewBox="0 0 21 21" fill="none" xmlns="http://www.w3.org/2000/svg">
<g clip-path="url(#clip0)">
<path d="M20.5625 14.875C19.347 14.875 18.5096 14.9312 17.8644 15.0145C18.1483 14.2658 18.3053 13.4863 18.3497 12.6876H20.5625C20.8043 12.6876 21 12.4919 21 12.25C21 12.0082 20.8043 11.8125 20.5625 11.8125H18.3529C18.251 9.97142 17.5172 8.3002 16.3606 7.00841L17.9247 5.44399C18.0956 5.27308 18.0956 4.99622 17.9247 4.82535C17.7538 4.65444 17.4769 4.65444 17.306 4.82535L15.742 6.38973C14.4503 5.23301 12.7789 4.49911 10.9375 4.39723V2.18751C10.9375 1.94569 10.7418 1.75 10.5 1.75C10.2582 1.75 10.0625 1.94569 10.0625 2.18751V4.39719C8.22109 4.49907 6.5497 5.23301 5.258 6.38969L3.69395 4.82531C3.52304 4.6544 3.24618 4.6544 3.07531 4.82531C2.9044 4.99622 2.9044 5.27308 3.07531 5.44395L4.63936 7.00837C3.4828 8.3002 2.74907 9.97142 2.64715 11.8125H0.437514C0.195686 11.8125 0 12.0082 0 12.25C0 12.4919 0.195686 12.6876 0.437514 12.6876H2.65035C2.69469 13.4864 2.85169 14.2659 3.13564 15.0145C2.49071 14.9312 1.65338 14.875 0.437514 14.875C0.195686 14.875 0 15.0707 0 15.3125C0 15.5543 0.195686 15.75 0.437514 15.75C2.78992 15.75 3.61622 15.9564 4.49207 16.1747C5.3799 16.396 6.29762 16.625 8.7577 16.625C8.99953 16.625 9.19521 16.4293 9.19521 16.1875C9.19521 15.9457 8.99953 15.75 8.7577 15.75C6.40529 15.75 5.57899 15.5437 4.70314 15.3254C4.53054 15.2823 4.35315 15.2394 4.16723 15.1975C3.73 14.2641 3.50003 13.2749 3.50003 12.25C3.49999 8.39031 6.64027 5.25003 10.5 5.25003C14.3597 5.25003 17.5 8.39031 17.5 12.25C17.5 13.275 17.27 14.2642 16.8328 15.1973C16.6462 15.2393 16.4683 15.2822 16.2952 15.3254C15.4185 15.5437 14.5913 15.75 12.2389 15.75C11.9971 15.75 11.8014 15.9457 11.8014 16.1875C11.8014 16.4294 11.9971 16.6251 12.2389 16.6251C14.699 16.6251 15.6176 16.3961 16.5062 16.1747C17.3821 15.9564 18.2101 15.75 20.5625 15.75C20.8043 15.75 21 15.5543 21 15.3125C21 15.0707 20.8043 14.875 20.5625 14.875Z" fill="white"/>
<path d="M12.25 14.875C12.362 14.875 12.4739 14.8323 12.5594 14.7468C12.7303 14.5759 12.7303 14.2991 12.5594 14.1282L10.8099 12.3787C10.7694 12.3381 10.7209 12.3059 10.6671 12.2836C10.5602 12.2394 10.4399 12.2394 10.333 12.2836C10.2791 12.3059 10.2306 12.3381 10.1902 12.3787L8.44068 14.1282C8.26977 14.2991 8.26977 14.576 8.44068 14.7468C8.6116 14.9178 8.88845 14.9178 9.05932 14.7468L10.0625 13.7437V18.8125C10.0625 19.0543 10.2582 19.25 10.5 19.25C10.7418 19.25 10.9375 19.0543 10.9375 18.8125V13.7436L11.9407 14.7468C12.0261 14.8323 12.1381 14.875 12.25 14.875Z" fill="white"/>
</g>
<defs>
<clipPath id="clip0">
<rect width="21" height="21" fill="white"/>
</clipPath>
</defs>
</svg>
