<svg width="21" height="21" viewBox="0 0 21 21" fill="none" xmlns="http://www.w3.org/2000/svg">
<g clip-path="url(#clip0)">
<path d="M20.5625 14C19.347 14 18.5096 14.0562 17.8644 14.1395C18.1483 13.3908 18.3053 12.6113 18.3497 11.8125H20.5625C20.8043 11.8125 21 11.6168 21 11.375C21 11.1332 20.8043 10.9375 20.5625 10.9375H18.3529C18.251 9.09638 17.5172 7.42516 16.3606 6.13337L17.9247 4.56895C18.0956 4.39804 18.0956 4.12118 17.9247 3.95031C17.7538 3.7794 17.4769 3.7794 17.306 3.95031L15.742 5.51469C14.4503 4.35797 12.7789 3.62407 10.9375 3.52219V1.31251C10.9375 1.07069 10.7418 0.875 10.5 0.875C10.2582 0.875 10.0625 1.07069 10.0625 1.31251V3.52219C8.22109 3.62407 6.5497 4.35801 5.258 5.51469L3.69399 3.95035C3.52308 3.77944 3.24622 3.77944 3.07535 3.95035C2.90444 4.12126 2.90444 4.39812 3.07535 4.56899L4.6394 6.13341C3.48284 7.4252 2.74911 9.09642 2.64719 10.9375H0.437514C0.195686 10.9375 0 11.1332 0 11.375C0 11.6168 0.195686 11.8125 0.437514 11.8125H2.65035C2.69469 12.6114 2.85169 13.3909 3.13564 14.1395C2.49071 14.0562 1.65338 14 0.437514 14C0.195686 14 0 14.1957 0 14.4375C0 14.6793 0.195686 14.875 0.437514 14.875C2.78992 14.875 3.61622 15.0814 4.49207 15.2997C5.3799 15.521 6.29762 15.75 8.7577 15.75C8.99953 15.75 9.19521 15.5543 9.19521 15.3125C9.19521 15.0707 8.99953 14.875 8.7577 14.875C6.40529 14.875 5.57899 14.6686 4.70314 14.4503C4.53054 14.4073 4.35315 14.3644 4.16723 14.3225C3.73 13.3891 3.50003 12.3999 3.50003 11.375C3.50003 7.51527 6.64031 4.37499 10.5 4.37499C14.3598 4.37499 17.5001 7.51527 17.5001 11.375C17.5001 12.4 17.27 13.3892 16.8328 14.3223C16.6463 14.3642 16.4683 14.4072 16.2952 14.4503C15.4185 14.6686 14.5913 14.875 12.2389 14.875C11.9971 14.875 11.8014 15.0707 11.8014 15.3125C11.8014 15.5543 11.9971 15.75 12.2389 15.75C14.699 15.75 15.6176 15.521 16.5063 15.2997C17.3821 15.0814 18.2102 14.875 20.5626 14.875C20.8044 14.875 21.0001 14.6793 21.0001 14.4375C21 14.1957 20.8043 14 20.5625 14Z" fill="white"/>
<path d="M11.9407 17.6282L10.9375 18.6313V13.5625C10.9375 13.3207 10.7418 13.125 10.5 13.125C10.2582 13.125 10.0625 13.3207 10.0625 13.5625V18.6313L9.05932 17.6282C8.88841 17.4573 8.61155 17.4573 8.44068 17.6282C8.26977 17.7991 8.26977 18.076 8.44068 18.2468L10.1902 19.9963C10.2306 20.0369 10.2791 20.0691 10.333 20.0914C10.3864 20.1135 10.4431 20.125 10.5 20.125C10.557 20.125 10.6136 20.1135 10.6671 20.0914C10.7209 20.0691 10.7694 20.0369 10.8099 19.9963L12.5594 18.2468C12.7303 18.0759 12.7303 17.7991 12.5594 17.6282C12.3884 17.4573 12.1116 17.4573 11.9407 17.6282Z" fill="white"/>
</g>
<defs>
<clipPath id="clip0">
<rect width="21" height="21" fill="white"/>
</clipPath>
</defs>
</svg>
