<svg width="21" height="21" viewBox="0 0 21 21" fill="none" xmlns="http://www.w3.org/2000/svg">
<path fill-rule="evenodd" clip-rule="evenodd" d="M14.7851 13.5353C14.0473 12.73 13.0541 12.2654 11.9473 12.2654C11.9189 12.2654 11.8905 12.2654 11.8905 12.2654H0.737838C0.340541 12.2654 0 12.6061 0 13.0707C0 13.4733 0.340541 13.845 0.737838 13.845H11.8905C11.9189 13.845 11.9189 13.845 11.9473 13.845C12.6568 13.845 13.2811 14.1548 13.7635 14.6503C14.2176 15.1459 14.5014 15.8583 14.5014 16.6326C14.5014 17.407 14.2176 18.0884 13.7635 18.6149C13.3095 19.1105 12.6568 19.4202 11.9473 19.4202C11.2378 19.4202 10.6135 19.1105 10.1311 18.6149C9.67703 18.1194 9.39324 17.407 9.39324 16.6326C9.39324 16.199 9.0527 15.8273 8.65541 15.8273C8.25811 15.8273 7.94595 16.199 7.94595 16.6326C7.94595 17.8406 8.4 18.9247 9.10946 19.73C9.8473 20.5353 10.8405 20.9999 11.9473 20.9999C13.0541 20.9999 14.0473 20.5043 14.7851 19.73C15.523 18.9247 15.9486 17.8406 15.9486 16.6326C15.9486 15.4247 15.4946 14.3406 14.7851 13.5353Z" fill="white"/>
<path fill-rule="evenodd" clip-rule="evenodd" d="M19.5527 1.25974C18.6446 0.469315 17.4244 0 16.0622 0C14.7 0 13.4514 0.494016 12.5717 1.25974C11.6636 2.05016 11.1244 3.1123 11.1244 4.29794C11.1244 4.64375 11.4649 4.94016 11.8622 4.94016C12.2595 4.94016 12.6 4.64375 12.6 4.29794C12.6 3.45811 12.9973 2.69238 13.6217 2.14897C14.246 1.60555 15.1257 1.25974 16.0906 1.25974C17.0554 1.25974 17.9352 1.60555 18.5595 2.14897C19.1838 2.69238 19.5811 3.45811 19.5811 4.29794C19.5811 5.13776 19.1838 5.90349 18.5595 6.4469C17.9352 6.99032 17.0554 7.33613 16.0906 7.33613C16.0622 7.33613 16.0338 7.33613 16.0338 7.33613H1.67436C1.27706 7.33613 0.936523 7.60784 0.936523 7.97835C0.936523 8.34886 1.22031 8.59587 1.64598 8.59587H16.0054C16.0338 8.59587 16.0338 8.59587 16.0622 8.59587C17.4244 8.59587 18.673 8.10185 19.5527 7.33613C20.4608 6.54571 21 5.48357 21 4.29794C21 3.1123 20.4325 2.02546 19.5527 1.25974Z" fill="white"/>
</svg>
